<?xml version="1.0" standalone="no"?>
<!DOCTYPE svg PUBLIC "-//W3C//DTD SVG 20010904//EN"
 "http://www.w3.org/TR/2001/REC-SVG-20010904/DTD/svg10.dtd">
<svg version="1.0" xmlns="http://www.w3.org/2000/svg"
 width="880.000000pt" height="650.000000pt" viewBox="0 0 880.000000 650.000000"
 preserveAspectRatio="xMidYMid meet">

<g transform="translate(0.000000,650.000000) scale(0.100000,-0.100000)"
fill="#000000" stroke="none">
<path d="M2363 6086 c-197 -48 -365 -239 -492 -558 -45 -116 -79 -219 -256
-788 -92 -294 -169 -537 -171 -539 -2 -3 -29 20 -59 49 l-55 54 0 167 c0 165
0 166 -26 192 -14 14 -38 28 -52 31 -53 11 -711 86 -755 86 -38 0 -49 -5 -71
-31 -14 -17 -26 -37 -26 -45 0 -29 102 -420 120 -461 10 -23 27 -46 38 -52 14
-7 127 -11 332 -11 l311 0 19 -46 c11 -25 20 -47 20 -48 0 -2 -21 -11 -47 -21
-142 -53 -284 -148 -396 -264 -141 -147 -214 -297 -224 -461 -4 -72 31 -469
63 -722 l7 -48 3757 0 3758 0 6 43 c27 191 67 654 63 727 -10 173 -84 319
-241 476 -110 110 -217 182 -348 236 l-76 31 17 46 17 46 319 5 c176 3 326 9
333 13 6 5 19 21 27 37 15 29 125 445 125 473 0 9 -13 31 -28 48 -23 26 -35
31 -68 31 -42 -1 -711 -78 -756 -88 -15 -3 -39 -19 -53 -36 -25 -29 -25 -33
-25 -193 l0 -164 -51 -48 c-28 -26 -56 -48 -62 -48 -6 0 -90 254 -186 565
-212 679 -226 721 -302 879 -124 259 -260 393 -440 436 -56 13 -311 15 -2039
14 -1546 -1 -1986 -3 -2027 -13z m4001 -455 c34 -32 105 -170 160 -312 56
-144 378 -1178 370 -1190 -6 -11 -4991 -13 -4997 -1 -5 9 309 1016 359 1151
58 156 138 314 179 349 l36 32 1934 -2 1933 -3 26 -24z m-4899 -2116 c333 -67
677 -232 779 -373 28 -40 31 -52 34 -130 4 -82 2 -88 -22 -111 -48 -46 -108
-54 -420 -59 -632 -9 -911 49 -987 204 -19 40 -24 69 -27 167 -5 143 8 188 72
244 106 93 299 113 571 58z m6332 3 c79 -26 145 -82 168 -143 27 -68 18 -262
-14 -328 -76 -157 -352 -214 -987 -205 -311 5 -372 14 -419 58 -23 21 -25 31
-25 106 0 76 2 85 33 130 94 136 398 289 734 370 198 48 387 52 510 12z"/>
<path d="M655 2418 c3 -18 16 -145 30 -283 14 -137 31 -288 37 -335 6 -47 14
-287 17 -535 l6 -450 34 -63 c54 -99 146 -167 259 -191 80 -17 365 -14 435 4
120 31 207 101 255 203 l27 57 3 393 3 392 2640 0 2639 0 0 -373 c0 -411 2
-432 61 -520 39 -59 103 -109 177 -139 53 -21 71 -23 272 -23 203 0 218 1 273
24 89 35 156 95 197 175 l35 69 6 441 c5 417 7 459 42 786 20 190 39 357 42
373 l5 27 -3751 0 -3750 0 6 -32z m4761 -244 c55 -26 64 -47 64 -149 0 -100
-10 -124 -60 -150 -25 -13 -160 -15 -1020 -15 -1072 0 -1026 -2 -1064 52 -24
34 -22 198 2 227 45 53 -2 51 1060 51 889 0 987 -2 1018 -16z"/>
</g>
</svg>
